<svg width="742" height="212" viewBox="0 0 742 212" fill="none" xmlns="http://www.w3.org/2000/svg">
<path d="M2.20178 59.2792C2.20178 26.7139 28.6011 0.314545 61.1664 0.314545L681.962 0.314545C714.512 0.314545 740.899 26.7017 740.899 59.2518V87.2153C740.899 103.834 727.583 117.389 710.966 117.684C694.35 117.979 681.034 131.533 681.034 148.152V164.049C681.034 189.784 660.194 210.659 634.459 210.703L106.284 211.605C80.2226 211.649 59.0724 190.535 59.0724 164.474V146.655C59.0724 130.863 46.4266 117.979 30.6371 117.684C14.8475 117.389 2.20178 104.505 2.20178 88.7125V59.2792Z" fill="white"/>
<path d="M40.401 87.5252C39.9312 87.5252 39.5202 87.3491 39.168 86.9968C38.8157 86.6445 38.6395 86.2335 38.6395 85.7638C38.6395 85.4702 38.6689 85.1473 38.7276 84.795L60.5693 27.8129C60.8041 27.2258 61.1271 26.7561 61.5381 26.4038C61.9491 26.0515 62.5656 25.8754 63.3876 25.8754H69.3764C70.1397 25.8754 70.7268 26.0515 71.1378 26.4038C71.6075 26.7561 71.9598 27.2258 72.1947 27.8129L93.9483 84.795C94.0657 85.1473 94.1244 85.4702 94.1244 85.7638C94.1244 86.2335 93.9483 86.6445 93.596 86.9968C93.2437 87.3491 92.8327 87.5252 92.363 87.5252H87.8713C87.1668 87.5252 86.6384 87.3491 86.2861 86.9968C85.9925 86.6445 85.787 86.3216 85.6696 86.028L80.8256 73.5219H51.9383L47.0944 86.028C47.0357 86.3216 46.8302 86.6445 46.4779 86.9968C46.1256 87.3491 45.5972 87.5252 44.8926 87.5252H40.401ZM54.4924 65.9478H78.2716L66.382 34.6825L54.4924 65.9478ZM101.78 87.5252C101.193 87.5252 100.694 87.3491 100.283 86.9968C99.9302 86.5858 99.7541 86.0867 99.7541 85.4996V43.7538C99.7541 43.1667 99.9302 42.697 100.283 42.3447C100.694 41.9337 101.193 41.7282 101.78 41.7282H120.099C125.618 41.7282 129.757 42.8438 132.517 45.0749C135.335 47.306 136.744 50.3005 136.744 54.0582C136.744 56.7003 136.245 58.6966 135.247 60.047C134.249 61.3974 132.839 62.5424 131.019 63.4818C133.25 64.4212 134.924 65.9478 136.039 68.0615C137.214 70.1165 137.801 72.2595 137.801 74.4907C137.801 78.7181 136.304 81.9474 133.309 84.1785C130.315 86.4097 126.146 87.5252 120.803 87.5252H101.78ZM107.857 81.096H120.099C122.917 81.096 125.177 80.5676 126.88 79.5107C128.641 78.3952 129.522 76.7218 129.522 74.4907C129.522 72.1421 128.73 70.4394 127.144 69.3826C125.559 68.267 123.21 67.7092 120.099 67.7092H107.857V81.096ZM107.857 61.1919H119.57C122.388 61.1919 124.62 60.5754 126.264 59.3424C127.966 58.1094 128.818 56.3774 128.818 54.1462C128.818 51.8564 127.966 50.3005 126.264 49.4785C124.62 48.5977 122.388 48.1574 119.57 48.1574H107.857V61.1919ZM160.483 87.5252C159.896 87.5252 159.397 87.3491 158.986 86.9968C158.634 86.5858 158.458 86.0867 158.458 85.4996V48.7739H143.133C142.546 48.7739 142.047 48.5977 141.636 48.2455C141.284 47.8345 141.108 47.3354 141.108 46.7482V43.7538C141.108 43.1667 141.284 42.697 141.636 42.3447C142.047 41.9337 142.546 41.7282 143.133 41.7282H181.885C182.472 41.7282 182.941 41.9337 183.294 42.3447C183.705 42.697 183.91 43.1667 183.91 43.7538V46.7482C183.91 47.3354 183.705 47.8345 183.294 48.2455C182.941 48.5977 182.472 48.7739 181.885 48.7739H166.56V85.4996C166.56 86.0867 166.384 86.5858 166.032 86.9968C165.68 87.3491 165.18 87.5252 164.535 87.5252H160.483ZM207.665 88.4059C203.202 88.4059 199.474 87.5546 196.48 85.8519C193.485 84.1492 191.195 81.8006 189.61 78.8062C188.025 75.753 187.144 72.2889 186.968 68.4138C186.909 67.4156 186.88 66.1533 186.88 64.6267C186.88 63.0414 186.909 61.7791 186.968 60.8396C187.144 56.9058 188.025 53.4417 189.61 50.4472C191.254 47.4528 193.573 45.1043 196.568 43.4015C199.562 41.6988 203.261 40.8475 207.665 40.8475C212.068 40.8475 215.767 41.6988 218.762 43.4015C221.756 45.1043 224.046 47.4528 225.631 50.4472C227.275 53.4417 228.185 56.9058 228.361 60.8396C228.42 61.7791 228.45 63.0414 228.45 64.6267C228.45 66.1533 228.42 67.4156 228.361 68.4138C228.185 72.2889 227.305 75.753 225.719 78.8062C224.134 81.8006 221.844 84.1492 218.85 85.8519C215.855 87.5546 212.127 88.4059 207.665 88.4059ZM207.665 81.6245C211.305 81.6245 214.211 80.4795 216.384 78.1897C218.556 75.8411 219.73 72.4357 219.907 67.9734C219.965 67.0927 219.995 65.9771 219.995 64.6267C219.995 63.2763 219.965 62.1607 219.907 61.28C219.73 56.8177 218.556 53.4417 216.384 51.1518C214.211 48.8032 211.305 47.629 207.665 47.629C204.024 47.629 201.089 48.8032 198.858 51.1518C196.685 53.4417 195.54 56.8177 195.423 61.28C195.364 62.1607 195.335 63.2763 195.335 64.6267C195.335 65.9771 195.364 67.0927 195.423 67.9734C195.54 72.4357 196.685 75.8411 198.858 78.1897C201.089 80.4795 204.024 81.6245 207.665 81.6245ZM238.773 87.5252C238.186 87.5252 237.716 87.3491 237.364 86.9968C237.012 86.6445 236.836 86.1748 236.836 85.5877V43.4015C236.836 42.9318 237.012 42.5502 237.364 42.2566C237.775 41.9043 238.186 41.7282 238.597 41.7282H243.089C244.028 41.7282 244.762 42.1979 245.29 43.1373L260.262 71.144L275.323 43.1373C275.851 42.1979 276.585 41.7282 277.524 41.7282H281.928C282.398 41.7282 282.809 41.9043 283.161 42.2566C283.513 42.5502 283.689 42.9318 283.689 43.4015V85.5877C283.689 86.1748 283.513 86.6445 283.161 86.9968C282.809 87.3491 282.368 87.5252 281.84 87.5252H277.524C276.937 87.5252 276.468 87.3491 276.115 86.9968C275.763 86.6445 275.587 86.1748 275.587 85.5877V50.4472L278.669 50.7995L264.314 77.9255C264.02 78.5126 263.668 79.041 263.257 79.5107C262.846 79.9805 262.229 80.2153 261.407 80.2153H259.118C258.354 80.2153 257.767 79.9805 257.356 79.5107C256.945 79.041 256.564 78.5126 256.211 77.9255L242.296 52.1206L245.026 51.8564V85.5877C245.026 86.1748 244.85 86.6445 244.498 86.9968C244.145 87.3491 243.676 87.5252 243.089 87.5252H238.773ZM306.997 88.4059C304.061 88.4059 301.389 87.8188 298.982 86.6445C296.575 85.4702 294.637 83.8849 293.169 81.8887C291.702 79.8924 290.968 77.6319 290.968 75.1072C290.968 71.0559 292.612 67.8266 295.9 65.4193C299.188 63.0121 303.474 61.4268 308.758 60.6635L321.881 58.814V56.2599C321.881 53.4417 321.059 51.2399 319.415 49.6546C317.829 48.0693 315.217 47.2767 311.576 47.2767C308.934 47.2767 306.791 47.8051 305.147 48.862C303.562 49.9188 302.446 51.2692 301.8 52.9132C301.448 53.7939 300.832 54.2343 299.951 54.2343H295.988C295.342 54.2343 294.843 54.0582 294.491 53.7059C294.197 53.2949 294.05 52.8252 294.05 52.2967C294.05 51.416 294.373 50.3298 295.019 49.0381C295.724 47.7464 296.78 46.484 298.19 45.251C299.599 44.018 301.389 42.9905 303.562 42.1685C305.793 41.2878 308.494 40.8475 311.664 40.8475C315.187 40.8475 318.152 41.3172 320.56 42.2566C322.967 43.1373 324.846 44.341 326.196 45.8675C327.605 47.3941 328.603 49.1262 329.191 51.0637C329.836 53.0013 330.159 54.9682 330.159 56.9645V85.4996C330.159 86.0867 329.954 86.5858 329.543 86.9968C329.191 87.3491 328.721 87.5252 328.134 87.5252H324.082C323.437 87.5252 322.938 87.3491 322.585 86.9968C322.233 86.5858 322.057 86.0867 322.057 85.4996V81.7125C321.294 82.7694 320.266 83.8262 318.974 84.8831C317.683 85.8812 316.068 86.7326 314.13 87.4372C312.193 88.083 309.815 88.4059 306.997 88.4059ZM308.846 81.8006C311.253 81.8006 313.455 81.3015 315.451 80.3034C317.448 79.2465 319.004 77.6319 320.119 75.4595C321.294 73.287 321.881 70.5568 321.881 67.2688V64.8028L311.664 66.3001C307.496 66.8872 304.355 67.8853 302.241 69.2945C300.127 70.6449 299.07 72.377 299.07 74.4907C299.07 76.1347 299.54 77.5145 300.479 78.63C301.478 79.6869 302.711 80.4795 304.178 81.008C305.705 81.5364 307.261 81.8006 308.846 81.8006ZM354.181 87.5252C353.594 87.5252 353.095 87.3491 352.684 86.9968C352.332 86.5858 352.156 86.0867 352.156 85.4996V48.7739H336.831C336.244 48.7739 335.745 48.5977 335.334 48.2455C334.982 47.8345 334.806 47.3354 334.806 46.7482V43.7538C334.806 43.1667 334.982 42.697 335.334 42.3447C335.745 41.9337 336.244 41.7282 336.831 41.7282H375.583C376.17 41.7282 376.64 41.9337 376.992 42.3447C377.403 42.697 377.608 43.1667 377.608 43.7538V46.7482C377.608 47.3354 377.403 47.8345 376.992 48.2455C376.64 48.5977 376.17 48.7739 375.583 48.7739H360.258V85.4996C360.258 86.0867 360.082 86.5858 359.73 86.9968C359.378 87.3491 358.879 87.5252 358.233 87.5252H354.181ZM384.541 87.5252C384.013 87.5252 383.543 87.3491 383.132 86.9968C382.78 86.5858 382.604 86.1454 382.604 85.6757V43.7538C382.604 43.1667 382.78 42.697 383.132 42.3447C383.543 41.9337 384.042 41.7282 384.629 41.7282H388.857C389.444 41.7282 389.914 41.9337 390.266 42.3447C390.618 42.697 390.794 43.1667 390.794 43.7538V81.096L388.504 78.7181L415.19 43.0493C415.484 42.697 415.807 42.4034 416.159 42.1685C416.511 41.875 416.952 41.7282 417.48 41.7282H421.531C422.001 41.7282 422.412 41.9043 422.764 42.2566C423.175 42.6089 423.381 43.0199 423.381 43.4896V85.4996C423.381 86.0867 423.175 86.5858 422.764 86.9968C422.412 87.3491 421.942 87.5252 421.355 87.5252H417.216C416.57 87.5252 416.071 87.3491 415.719 86.9968C415.366 86.5858 415.19 86.0867 415.19 85.4996V50.3592L417.656 50.2711L390.794 86.2042C390.559 86.4977 390.266 86.7913 389.914 87.0849C389.561 87.3784 389.092 87.5252 388.504 87.5252H384.541ZM462.517 87.5252C461.871 87.5252 461.372 87.3491 461.02 86.9968C460.668 86.5858 460.492 86.0867 460.492 85.4996V68.9422C458.906 70.41 456.969 71.4963 454.679 72.2008C452.448 72.8467 449.894 73.1696 447.017 73.1696C441.85 73.1696 437.828 72.0247 434.951 69.7348C432.133 67.445 430.724 63.746 430.724 58.6379V43.7538C430.724 43.1667 430.9 42.697 431.252 42.3447C431.663 41.9337 432.162 41.7282 432.749 41.7282H437.065C437.652 41.7282 438.122 41.9337 438.474 42.3447C438.885 42.697 439.09 43.1667 439.09 43.7538V58.1094C439.09 60.7516 439.854 62.6891 441.38 63.9221C442.966 65.1551 445.373 65.7716 448.602 65.7716C452.184 65.7716 455.061 65.3313 457.233 64.4506C459.405 63.5111 460.492 61.8671 460.492 59.5186V43.7538C460.492 43.1667 460.668 42.697 461.02 42.3447C461.372 41.9337 461.871 41.7282 462.517 41.7282H466.921C467.508 41.7282 467.978 41.9337 468.33 42.3447C468.741 42.697 468.947 43.1667 468.947 43.7538V85.4996C468.947 86.0867 468.741 86.5858 468.33 86.9968C467.978 87.3491 467.508 87.5252 466.921 87.5252H462.517ZM497.641 88.4059C491.593 88.4059 486.778 86.5564 483.197 82.8574C479.615 79.0997 477.648 73.9916 477.296 67.5331C477.237 66.7698 477.208 65.801 477.208 64.6267C477.208 63.3937 477.237 62.3956 477.296 61.6323C477.531 57.4636 478.5 53.8233 480.202 50.7115C481.905 47.5409 484.224 45.1043 487.16 43.4015C490.155 41.6988 493.648 40.8475 497.641 40.8475C502.103 40.8475 505.831 41.7869 508.826 43.6658C511.879 45.5446 514.198 48.2161 515.783 51.6802C517.369 55.1444 518.161 59.1956 518.161 63.8341V65.3313C518.161 65.9771 517.956 66.4762 517.545 66.8285C517.192 67.1808 516.723 67.3569 516.136 67.3569H485.663C485.663 67.4156 485.663 67.5331 485.663 67.7092C485.663 67.8853 485.663 68.0321 485.663 68.1496C485.78 70.5568 486.309 72.8173 487.248 74.931C488.188 76.986 489.538 78.6594 491.299 79.9511C493.061 81.2428 495.175 81.8887 497.641 81.8887C499.754 81.8887 501.516 81.5657 502.925 80.9199C504.334 80.274 505.479 79.5695 506.36 78.8062C507.24 77.9842 507.827 77.3677 508.121 76.9567C508.649 76.1934 509.06 75.753 509.354 75.6356C509.648 75.4595 510.117 75.3714 510.763 75.3714H514.991C515.578 75.3714 516.047 75.5475 516.4 75.8998C516.811 76.1934 516.987 76.6337 516.928 77.2209C516.869 78.1016 516.4 79.1878 515.519 80.4795C514.638 81.7125 513.376 82.9455 511.732 84.1785C510.088 85.4115 508.092 86.439 505.743 87.261C503.395 88.0243 500.694 88.4059 497.641 88.4059ZM485.663 61.28H509.794V61.0158C509.794 58.3736 509.295 56.0251 508.297 53.9701C507.358 51.9151 505.978 50.3005 504.158 49.1262C502.338 47.8932 500.165 47.2767 497.641 47.2767C495.116 47.2767 492.943 47.8932 491.123 49.1262C489.362 50.3005 488.011 51.9151 487.072 53.9701C486.133 56.0251 485.663 58.3736 485.663 61.0158V61.28ZM544.545 88.4059C540.376 88.4059 536.765 87.6133 533.712 86.028C530.718 84.384 528.398 82.0648 526.754 79.0704C525.11 76.0173 524.23 72.377 524.112 68.1496C524.053 67.2688 524.024 66.0946 524.024 64.6267C524.024 63.1589 524.053 61.9846 524.112 61.1039C524.23 56.8764 525.11 53.2655 526.754 50.2711C528.398 47.218 530.718 44.8988 533.712 43.3135C536.765 41.6695 540.376 40.8475 544.545 40.8475C547.95 40.8475 550.856 41.3172 553.264 42.2566C555.73 43.196 557.755 44.3997 559.341 45.8675C560.926 47.3354 562.1 48.9207 562.864 50.6234C563.686 52.3261 564.126 53.9407 564.185 55.4673C564.243 56.0544 564.067 56.5242 563.656 56.8764C563.245 57.2287 562.746 57.4049 562.159 57.4049H557.932C557.344 57.4049 556.904 57.2874 556.61 57.0526C556.317 56.759 556.023 56.2893 555.73 55.6434C554.673 52.7664 553.234 50.7408 551.414 49.5665C549.594 48.3922 547.334 47.8051 544.633 47.8051C541.11 47.8051 538.233 48.8913 536.002 51.0637C533.829 53.2362 532.655 56.7297 532.479 61.5442C532.42 63.6579 532.42 65.7129 532.479 67.7092C532.655 72.5825 533.829 76.1053 536.002 78.2777C538.233 80.3915 541.11 81.4483 544.633 81.4483C547.334 81.4483 549.594 80.8612 551.414 79.6869C553.234 78.5126 554.673 76.487 555.73 73.61C556.023 72.9641 556.317 72.5238 556.61 72.2889C556.904 71.9953 557.344 71.8485 557.932 71.8485H562.159C562.746 71.8485 563.245 72.0247 563.656 72.377C564.067 72.7293 564.243 73.199 564.185 73.7861C564.126 75.0191 563.862 76.2815 563.392 77.5732C562.922 78.8649 562.159 80.186 561.102 81.5364C560.104 82.8281 558.842 84.0024 557.315 85.0592C555.788 86.0574 553.939 86.8794 551.767 87.5252C549.653 88.1124 547.246 88.4059 544.545 88.4059ZM574.027 87.5252C573.44 87.5252 572.941 87.3491 572.53 86.9968C572.178 86.5858 572.002 86.0867 572.002 85.4996V43.7538C572.002 43.1667 572.178 42.697 572.53 42.3447C572.941 41.9337 573.44 41.7282 574.027 41.7282H578.167C578.754 41.7282 579.223 41.9337 579.576 42.3447C579.987 42.697 580.192 43.1667 580.192 43.7538V60.6635H588.207L600.096 43.0493C600.39 42.6383 600.713 42.3153 601.065 42.0805C601.417 41.8456 601.887 41.7282 602.474 41.7282H607.054C607.582 41.7282 608.023 41.8456 608.375 42.0805C608.727 42.3153 608.903 42.6676 608.903 43.1373C608.903 43.2548 608.845 43.4309 608.727 43.6658C608.669 43.8419 608.58 44.018 608.463 44.1942L595.252 63.6579L610.224 84.9712C610.518 85.3234 610.665 85.7051 610.665 86.1161C610.665 86.5858 610.489 86.9381 610.136 87.1729C609.843 87.4078 609.432 87.5252 608.903 87.5252H603.531C603.003 87.5252 602.562 87.4078 602.21 87.1729C601.858 86.9381 601.535 86.6152 601.241 86.2042L588.295 67.7973H580.192V85.4996C580.192 86.0867 579.987 86.5858 579.576 86.9968C579.223 87.3491 578.754 87.5252 578.167 87.5252H574.027ZM633.186 88.4059C628.724 88.4059 624.996 87.5546 622.001 85.8519C619.007 84.1492 616.717 81.8006 615.132 78.8062C613.546 75.753 612.666 72.2889 612.49 68.4138C612.431 67.4156 612.401 66.1533 612.401 64.6267C612.401 63.0414 612.431 61.7791 612.49 60.8396C612.666 56.9058 613.546 53.4417 615.132 50.4472C616.776 47.4528 619.095 45.1043 622.089 43.4015C625.084 41.6988 628.783 40.8475 633.186 40.8475C637.59 40.8475 641.289 41.6988 644.283 43.4015C647.278 45.1043 649.568 47.4528 651.153 50.4472C652.797 53.4417 653.707 56.9058 653.883 60.8396C653.942 61.7791 653.971 63.0414 653.971 64.6267C653.971 66.1533 653.942 67.4156 653.883 68.4138C653.707 72.2889 652.826 75.753 651.241 78.8062C649.656 81.8006 647.366 84.1492 644.371 85.8519C641.377 87.5546 637.649 88.4059 633.186 88.4059ZM633.186 81.6245C636.827 81.6245 639.733 80.4795 641.905 78.1897C644.078 75.8411 645.252 72.4357 645.428 67.9734C645.487 67.0927 645.516 65.9771 645.516 64.6267C645.516 63.2763 645.487 62.1607 645.428 61.28C645.252 56.8177 644.078 53.4417 641.905 51.1518C639.733 48.8032 636.827 47.629 633.186 47.629C629.546 47.629 626.61 48.8032 624.379 51.1518C622.207 53.4417 621.062 56.8177 620.944 61.28C620.886 62.1607 620.856 63.2763 620.856 64.6267C620.856 65.9771 620.886 67.0927 620.944 67.9734C621.062 72.4357 622.207 75.8411 624.379 78.1897C626.61 80.4795 629.546 81.6245 633.186 81.6245ZM680.588 88.4059C674.54 88.4059 669.726 86.5564 666.144 82.8574C662.563 79.0997 660.596 73.9916 660.243 67.5331C660.185 66.7698 660.155 65.801 660.155 64.6267C660.155 63.3937 660.185 62.3956 660.243 61.6323C660.478 57.4636 661.447 53.8233 663.15 50.7115C664.852 47.5409 667.172 45.1043 670.107 43.4015C673.102 41.6988 676.595 40.8475 680.588 40.8475C685.05 40.8475 688.778 41.7869 691.773 43.6658C694.826 45.5446 697.145 48.2161 698.731 51.6802C700.316 55.1444 701.108 59.1956 701.108 63.8341V65.3313C701.108 65.9771 700.903 66.4762 700.492 66.8285C700.14 67.1808 699.67 67.3569 699.083 67.3569H668.61C668.61 67.4156 668.61 67.5331 668.61 67.7092C668.61 67.8853 668.61 68.0321 668.61 68.1496C668.728 70.5568 669.256 72.8173 670.195 74.931C671.135 76.986 672.485 78.6594 674.247 79.9511C676.008 81.2428 678.122 81.8887 680.588 81.8887C682.702 81.8887 684.463 81.5657 685.872 80.9199C687.281 80.274 688.426 79.5695 689.307 78.8062C690.188 77.9842 690.775 77.3677 691.068 76.9567C691.597 76.1934 692.008 75.753 692.301 75.6356C692.595 75.4595 693.065 75.3714 693.71 75.3714H697.938C698.525 75.3714 698.995 75.5475 699.347 75.8998C699.758 76.1934 699.934 76.6337 699.875 77.2209C699.817 78.1016 699.347 79.1878 698.466 80.4795C697.586 81.7125 696.323 82.9455 694.679 84.1785C693.035 85.4115 691.039 86.439 688.69 87.261C686.342 88.0243 683.641 88.4059 680.588 88.4059ZM668.61 61.28H692.742V61.0158C692.742 58.3736 692.243 56.0251 691.244 53.9701C690.305 51.9151 688.925 50.3005 687.105 49.1262C685.285 47.8932 683.113 47.2767 680.588 47.2767C678.063 47.2767 675.891 47.8932 674.071 49.1262C672.309 50.3005 670.959 51.9151 670.019 53.9701C669.08 56.0251 668.61 58.3736 668.61 61.0158V61.28ZM99.1685 175.525C98.5814 175.525 98.0823 175.349 97.6713 174.997C97.3191 174.586 97.1429 174.087 97.1429 173.5V131.754C97.1429 131.167 97.3191 130.697 97.6713 130.345C98.0823 129.934 98.5814 129.728 99.1685 129.728H134.133C134.72 129.728 135.19 129.934 135.542 130.345C135.953 130.697 136.158 131.167 136.158 131.754V173.5C136.158 174.087 135.953 174.586 135.542 174.997C135.19 175.349 134.72 175.525 134.133 175.525H129.905C129.318 175.525 128.849 175.349 128.496 174.997C128.144 174.586 127.968 174.087 127.968 173.5V136.774H105.334V173.5C105.334 174.087 105.157 174.586 104.805 174.997C104.453 175.349 103.983 175.525 103.396 175.525H99.1685ZM148.735 192.259C148.148 192.259 147.649 192.053 147.238 191.642C146.885 191.29 146.709 190.82 146.709 190.233V131.754C146.709 131.167 146.885 130.697 147.238 130.345C147.649 129.934 148.148 129.728 148.735 129.728H152.786C153.373 129.728 153.843 129.934 154.195 130.345C154.606 130.697 154.812 131.167 154.812 131.754V135.629C156.221 133.691 158.1 132.077 160.448 130.785C162.797 129.493 165.733 128.847 169.255 128.847C172.543 128.847 175.332 129.405 177.622 130.521C179.971 131.636 181.879 133.163 183.347 135.101C184.873 137.038 186.018 139.24 186.782 141.706C187.545 144.172 187.956 146.814 188.015 149.632C188.073 150.572 188.103 151.57 188.103 152.627C188.103 153.684 188.073 154.682 188.015 155.621C187.956 158.381 187.545 161.023 186.782 163.548C186.018 166.014 184.873 168.215 183.347 170.153C181.879 172.032 179.971 173.558 177.622 174.733C175.332 175.848 172.543 176.406 169.255 176.406C165.85 176.406 162.973 175.789 160.624 174.556C158.335 173.265 156.456 171.679 154.988 169.801V190.233C154.988 190.82 154.812 191.29 154.459 191.642C154.107 192.053 153.608 192.259 152.962 192.259H148.735ZM167.406 169.272C170.459 169.272 172.837 168.626 174.54 167.335C176.301 165.984 177.563 164.252 178.327 162.138C179.09 159.966 179.53 157.647 179.648 155.181C179.706 153.478 179.706 151.775 179.648 150.073C179.53 147.607 179.09 145.317 178.327 143.203C177.563 141.031 176.301 139.299 174.54 138.007C172.837 136.656 170.459 135.981 167.406 135.981C164.529 135.981 162.18 136.656 160.36 138.007C158.599 139.357 157.278 141.089 156.397 143.203C155.575 145.258 155.105 147.372 154.988 149.544C154.929 150.484 154.9 151.599 154.9 152.891C154.9 154.183 154.929 155.328 154.988 156.326C155.047 158.381 155.516 160.406 156.397 162.403C157.336 164.399 158.716 166.043 160.536 167.335C162.356 168.626 164.646 169.272 167.406 169.272ZM215.202 176.406C210.74 176.406 207.012 175.555 204.017 173.852C201.023 172.149 198.733 169.801 197.148 166.806C195.562 163.753 194.682 160.289 194.506 156.414C194.447 155.416 194.418 154.153 194.418 152.627C194.418 151.041 194.447 149.779 194.506 148.84C194.682 144.906 195.562 141.442 197.148 138.447C198.792 135.453 201.111 133.104 204.105 131.402C207.1 129.699 210.799 128.847 215.202 128.847C219.606 128.847 223.305 129.699 226.299 131.402C229.294 133.104 231.584 135.453 233.169 138.447C234.813 141.442 235.723 144.906 235.899 148.84C235.958 149.779 235.987 151.041 235.987 152.627C235.987 154.153 235.958 155.416 235.899 156.414C235.723 160.289 234.842 163.753 233.257 166.806C231.672 169.801 229.382 172.149 226.387 173.852C223.393 175.555 219.665 176.406 215.202 176.406ZM215.202 169.624C218.843 169.624 221.749 168.48 223.921 166.19C226.094 163.841 227.268 160.436 227.444 155.973C227.503 155.093 227.532 153.977 227.532 152.627C227.532 151.276 227.503 150.161 227.444 149.28C227.268 144.818 226.094 141.442 223.921 139.152C221.749 136.803 218.843 135.629 215.202 135.629C211.562 135.629 208.626 136.803 206.395 139.152C204.223 141.442 203.078 144.818 202.96 149.28C202.902 150.161 202.872 151.276 202.872 152.627C202.872 153.977 202.902 155.093 202.96 155.973C203.078 160.436 204.223 163.841 206.395 166.19C208.626 168.48 211.562 169.624 215.202 169.624ZM241.731 185.213C241.144 185.213 240.645 185.008 240.234 184.597C239.882 184.244 239.705 183.775 239.705 183.187V170.505C239.705 169.918 239.882 169.448 240.234 169.096C240.645 168.685 241.144 168.48 241.731 168.48H242.171C243.757 168.421 245.107 167.54 246.223 165.837C247.338 164.076 248.19 161.346 248.777 157.647C249.364 153.889 249.657 149.016 249.657 143.027V131.754C249.657 131.167 249.834 130.697 250.186 130.345C250.597 129.934 251.096 129.728 251.683 129.728H279.778C280.365 129.728 280.835 129.934 281.187 130.345C281.598 130.697 281.803 131.167 281.803 131.754V168.303H285.943C286.589 168.303 287.088 168.509 287.44 168.92C287.792 169.272 287.968 169.742 287.968 170.329V183.187C287.968 183.775 287.792 184.244 287.44 184.597C287.088 185.008 286.589 185.213 285.943 185.213H281.803C281.216 185.213 280.717 185.008 280.306 184.597C279.954 184.244 279.778 183.775 279.778 183.187V175.525H247.896V183.187C247.896 183.775 247.691 184.244 247.28 184.597C246.927 185.008 246.458 185.213 245.87 185.213H241.731ZM252.652 168.48L273.613 168.303V136.774H257.672V143.996C257.672 150.219 257.232 155.328 256.351 159.32C255.47 163.254 254.237 166.307 252.652 168.48ZM296.565 175.525C295.978 175.525 295.479 175.349 295.068 174.997C294.716 174.586 294.539 174.087 294.539 173.5V131.754C294.539 131.167 294.716 130.697 295.068 130.345C295.479 129.934 295.978 129.728 296.565 129.728H314.884C320.403 129.728 324.542 130.844 327.302 133.075C330.12 135.306 331.529 138.3 331.529 142.058C331.529 144.7 331.03 146.697 330.032 148.047C329.034 149.397 327.625 150.542 325.805 151.482C328.036 152.421 329.709 153.948 330.825 156.061C331.999 158.116 332.586 160.26 332.586 162.491C332.586 166.718 331.089 169.947 328.095 172.179C325.1 174.41 320.931 175.525 315.588 175.525H296.565ZM302.642 169.096H314.884C317.702 169.096 319.963 168.568 321.665 167.511C323.427 166.395 324.307 164.722 324.307 162.491C324.307 160.142 323.515 158.439 321.93 157.383C320.344 156.267 317.996 155.709 314.884 155.709H302.642V169.096ZM302.642 149.192H314.355C317.174 149.192 319.405 148.575 321.049 147.342C322.752 146.109 323.603 144.377 323.603 142.146C323.603 139.856 322.752 138.3 321.049 137.478C319.405 136.598 317.174 136.157 314.355 136.157H302.642V149.192ZM343.203 175.525C342.674 175.525 342.205 175.349 341.794 174.997C341.441 174.586 341.265 174.145 341.265 173.676V131.754C341.265 131.167 341.441 130.697 341.794 130.345C342.205 129.934 342.704 129.728 343.291 129.728H347.518C348.106 129.728 348.575 129.934 348.928 130.345C349.28 130.697 349.456 131.167 349.456 131.754V169.096L347.166 166.718L373.852 131.049C374.145 130.697 374.468 130.403 374.82 130.169C375.173 129.875 375.613 129.728 376.142 129.728H380.193C380.663 129.728 381.074 129.904 381.426 130.257C381.837 130.609 382.042 131.02 382.042 131.49V173.5C382.042 174.087 381.837 174.586 381.426 174.997C381.074 175.349 380.604 175.525 380.017 175.525H375.877C375.231 175.525 374.732 175.349 374.38 174.997C374.028 174.586 373.852 174.087 373.852 173.5V138.359L376.318 138.271L349.456 174.204C349.221 174.498 348.928 174.791 348.575 175.085C348.223 175.378 347.753 175.525 347.166 175.525H343.203ZM389.561 175.525C389.033 175.525 388.593 175.408 388.24 175.173C387.947 174.938 387.8 174.586 387.8 174.116C387.8 173.823 387.947 173.441 388.24 172.971L403.3 151.57L390.002 132.194C389.884 132.018 389.796 131.842 389.737 131.666C389.679 131.431 389.649 131.255 389.649 131.137C389.649 130.668 389.796 130.315 390.09 130.08C390.442 129.846 390.882 129.728 391.411 129.728H395.991C396.578 129.728 397.047 129.846 397.4 130.08C397.752 130.315 398.075 130.638 398.368 131.049L410.258 148.664H416.952V131.754C416.952 131.167 417.128 130.697 417.48 130.345C417.891 129.934 418.39 129.728 418.977 129.728H423.028C423.674 129.728 424.173 129.934 424.526 130.345C424.878 130.697 425.054 131.167 425.054 131.754V148.664H431.483L443.549 131.049C443.784 130.638 444.077 130.315 444.43 130.08C444.841 129.846 445.31 129.728 445.839 129.728H450.507C451.035 129.728 451.446 129.846 451.74 130.08C452.092 130.315 452.268 130.668 452.268 131.137C452.268 131.255 452.209 131.431 452.092 131.666C452.033 131.842 451.945 132.018 451.828 132.194L438.617 151.57L453.677 172.971C453.912 173.323 454.029 173.705 454.029 174.116C454.029 174.586 453.883 174.938 453.589 175.173C453.296 175.408 452.855 175.525 452.268 175.525H446.984C446.397 175.525 445.898 175.408 445.487 175.173C445.134 174.938 444.841 174.615 444.606 174.204L431.747 155.709H425.054V173.5C425.054 174.087 424.878 174.586 424.526 174.997C424.173 175.349 423.674 175.525 423.028 175.525H418.977C418.39 175.525 417.891 175.349 417.48 174.997C417.128 174.586 416.952 174.087 416.952 173.5V155.709H410.258L397.224 174.204C397.047 174.615 396.754 174.938 396.343 175.173C395.991 175.408 395.521 175.525 394.934 175.525H389.561ZM478.148 176.406C472.1 176.406 467.286 174.556 463.704 170.857C460.123 167.1 458.156 161.992 457.803 155.533C457.745 154.77 457.715 153.801 457.715 152.627C457.715 151.394 457.745 150.396 457.803 149.632C458.038 145.464 459.007 141.823 460.71 138.711C462.413 135.541 464.732 133.104 467.667 131.402C470.662 129.699 474.155 128.847 478.148 128.847C482.61 128.847 486.339 129.787 489.333 131.666C492.386 133.545 494.705 136.216 496.291 139.68C497.876 143.144 498.669 147.196 498.669 151.834V153.331C498.669 153.977 498.463 154.476 498.052 154.828C497.7 155.181 497.23 155.357 496.643 155.357H466.17C466.17 155.416 466.17 155.533 466.17 155.709C466.17 155.885 466.17 156.032 466.17 156.15C466.288 158.557 466.816 160.817 467.756 162.931C468.695 164.986 470.045 166.659 471.807 167.951C473.568 169.243 475.682 169.889 478.148 169.889C480.262 169.889 482.023 169.566 483.432 168.92C484.841 168.274 485.986 167.569 486.867 166.806C487.748 165.984 488.335 165.368 488.628 164.957C489.157 164.193 489.568 163.753 489.861 163.636C490.155 163.459 490.625 163.371 491.271 163.371H495.498C496.085 163.371 496.555 163.548 496.907 163.9C497.318 164.193 497.494 164.634 497.436 165.221C497.377 166.102 496.907 167.188 496.026 168.48C495.146 169.713 493.883 170.946 492.239 172.179C490.595 173.412 488.599 174.439 486.25 175.261C483.902 176.024 481.201 176.406 478.148 176.406ZM466.17 149.28H490.302V149.016C490.302 146.374 489.803 144.025 488.805 141.97C487.865 139.915 486.485 138.3 484.665 137.126C482.845 135.893 480.673 135.277 478.148 135.277C475.623 135.277 473.451 135.893 471.631 137.126C469.869 138.3 468.519 139.915 467.579 141.97C466.64 144.025 466.17 146.374 466.17 149.016V149.28ZM508.583 175.525C507.996 175.525 507.497 175.349 507.086 174.997C506.733 174.586 506.557 174.087 506.557 173.5V131.754C506.557 131.167 506.733 130.697 507.086 130.345C507.497 129.934 507.996 129.728 508.583 129.728H512.81C513.397 129.728 513.867 129.934 514.219 130.345C514.572 130.697 514.748 131.167 514.748 131.754V148.664H538.791V131.754C538.791 131.167 538.967 130.697 539.32 130.345C539.731 129.934 540.23 129.728 540.817 129.728H544.956C545.543 129.728 546.013 129.934 546.365 130.345C546.776 130.697 546.982 131.167 546.982 131.754V173.5C546.982 174.087 546.776 174.586 546.365 174.997C546.013 175.349 545.543 175.525 544.956 175.525H540.817C540.23 175.525 539.731 175.349 539.32 174.997C538.967 174.586 538.791 174.087 538.791 173.5V155.709H514.748V173.5C514.748 174.087 514.572 174.586 514.219 174.997C513.867 175.349 513.397 175.525 512.81 175.525H508.583ZM559.521 175.525C558.992 175.525 558.523 175.349 558.112 174.997C557.759 174.586 557.583 174.145 557.583 173.676V131.754C557.583 131.167 557.759 130.697 558.112 130.345C558.523 129.934 559.022 129.728 559.609 129.728H563.836C564.424 129.728 564.893 129.934 565.246 130.345C565.598 130.697 565.774 131.167 565.774 131.754V169.096L563.484 166.718L590.17 131.049C590.463 130.697 590.786 130.403 591.138 130.169C591.491 129.875 591.931 129.728 592.46 129.728H596.511C596.981 129.728 597.392 129.904 597.744 130.257C598.155 130.609 598.36 131.02 598.36 131.49V173.5C598.36 174.087 598.155 174.586 597.744 174.997C597.392 175.349 596.922 175.525 596.335 175.525H592.195C591.549 175.525 591.05 175.349 590.698 174.997C590.346 174.586 590.17 174.087 590.17 173.5V138.359L592.636 138.271L565.774 174.204C565.539 174.498 565.246 174.791 564.893 175.085C564.541 175.378 564.071 175.525 563.484 175.525H559.521ZM626.84 176.406C620.793 176.406 615.978 174.556 612.397 170.857C608.815 167.1 606.848 161.992 606.496 155.533C606.437 154.77 606.408 153.801 606.408 152.627C606.408 151.394 606.437 150.396 606.496 149.632C606.731 145.464 607.7 141.823 609.402 138.711C611.105 135.541 613.424 133.104 616.36 131.402C619.354 129.699 622.848 128.847 626.84 128.847C631.303 128.847 635.031 129.787 638.025 131.666C641.079 133.545 643.398 136.216 644.983 139.68C646.568 143.144 647.361 147.196 647.361 151.834V153.331C647.361 153.977 647.155 154.476 646.744 154.828C646.392 155.181 645.922 155.357 645.335 155.357H614.863C614.863 155.416 614.863 155.533 614.863 155.709C614.863 155.885 614.863 156.032 614.863 156.15C614.98 158.557 615.509 160.817 616.448 162.931C617.387 164.986 618.738 166.659 620.499 167.951C622.261 169.243 624.374 169.889 626.84 169.889C628.954 169.889 630.715 169.566 632.125 168.92C633.534 168.274 634.679 167.569 635.559 166.806C636.44 165.984 637.027 165.368 637.321 164.957C637.849 164.193 638.26 163.753 638.554 163.636C638.847 163.459 639.317 163.371 639.963 163.371H644.19C644.778 163.371 645.247 163.548 645.6 163.9C646.011 164.193 646.187 164.634 646.128 165.221C646.069 166.102 645.6 167.188 644.719 168.48C643.838 169.713 642.576 170.946 640.932 172.179C639.288 173.412 637.291 174.439 634.943 175.261C632.594 176.024 629.893 176.406 626.84 176.406ZM614.863 149.28H638.994V149.016C638.994 146.374 638.495 144.025 637.497 141.97C636.558 139.915 635.178 138.3 633.358 137.126C631.537 135.893 629.365 135.277 626.84 135.277C624.316 135.277 622.143 135.893 620.323 137.126C618.562 138.3 617.211 139.915 616.272 141.97C615.332 144.025 614.863 146.374 614.863 149.016V149.28Z" fill="#181E34"/>
</svg>
