<svg width="120" height="120" viewBox="0 0 120 120" fill="none" xmlns="http://www.w3.org/2000/svg">
<path d="M105.457 75.4554L82.2438 52.242C79.9008 49.8984 76.1016 49.8984 73.7586 52.242L29.191 96.8094C18.6823 88.0044 12 74.7822 12 60C12 33.4903 33.4903 12 60 12C86.5098 12 108 33.4903 108 60C108 65.4072 107.106 70.6056 105.457 75.4554ZM60 120C93.1368 120 120 93.1368 120 60C120 26.8629 93.1368 0 60 0C26.8629 0 0 26.8629 0 60C0 93.1368 26.8629 120 60 120ZM54 48C54 54.6276 48.6276 60 42 60C35.3726 60 30 54.6276 30 48C30 41.3726 35.3726 36 42 36C48.6276 36 54 41.3726 54 48Z" fill="#C9CBE9"/>
</svg>
