<svg width="148" height="28" viewBox="0 0 148 28" fill="none" xmlns="http://www.w3.org/2000/svg">
<circle cx="11.5" cy="13.5" r="11.5" fill="#3888F9"/>
<circle cx="15.5" cy="18.5" r="8.5" fill="#FDFFFF"/>
<path d="M36.64 22C36.464 22 36.328 21.952 36.232 21.856C36.136 21.744 36.088 21.608 36.088 21.448V5.752C36.088 5.592 36.136 5.464 36.232 5.368C36.328 5.256 36.464 5.2 36.64 5.2H37.912C38.072 5.2 38.2 5.256 38.296 5.368C38.392 5.464 38.44 5.592 38.44 5.752V19.912H46.432C46.608 19.912 46.744 19.968 46.84 20.08C46.936 20.176 46.984 20.312 46.984 20.488V21.448C46.984 21.608 46.936 21.744 46.84 21.856C46.744 21.952 46.608 22 46.432 22H36.64ZM50.1634 22C49.9874 22 49.8514 21.952 49.7554 21.856C49.6594 21.744 49.6114 21.608 49.6114 21.448V5.752C49.6114 5.592 49.6594 5.464 49.7554 5.368C49.8514 5.256 49.9874 5.2 50.1634 5.2H51.4354C51.5954 5.2 51.7234 5.256 51.8194 5.368C51.9314 5.464 51.9874 5.592 51.9874 5.752V21.448C51.9874 21.608 51.9314 21.744 51.8194 21.856C51.7234 21.952 51.5954 22 51.4354 22H50.1634ZM60.3979 22C60.2379 22 60.1019 21.952 59.9899 21.856C59.8939 21.744 59.8459 21.608 59.8459 21.448V7.336H55.2379C55.0779 7.336 54.9419 7.288 54.8299 7.192C54.7339 7.08 54.6859 6.944 54.6859 6.784V5.776C54.6859 5.6 54.7339 5.464 54.8299 5.368C54.9419 5.256 55.0779 5.2 55.2379 5.2H66.8059C66.9819 5.2 67.1179 5.256 67.2139 5.368C67.3259 5.464 67.3819 5.6 67.3819 5.776V6.784C67.3819 6.944 67.3259 7.08 67.2139 7.192C67.1179 7.288 66.9819 7.336 66.8059 7.336H62.2219V21.448C62.2219 21.608 62.1659 21.744 62.0539 21.856C61.9579 21.952 61.8219 22 61.6459 22H60.3979ZM70.6244 22C70.4484 22 70.3124 21.952 70.2164 21.856C70.1204 21.744 70.0724 21.608 70.0724 21.448V5.776C70.0724 5.6 70.1204 5.464 70.2164 5.368C70.3124 5.256 70.4484 5.2 70.6244 5.2H80.5364C80.7124 5.2 80.8484 5.256 80.9444 5.368C81.0404 5.464 81.0884 5.6 81.0884 5.776V6.688C81.0884 6.864 81.0404 7 80.9444 7.096C80.8484 7.192 80.7124 7.24 80.5364 7.24H72.3764V12.496H80.0084C80.1844 12.496 80.3204 12.552 80.4164 12.664C80.5124 12.76 80.5604 12.896 80.5604 13.072V13.96C80.5604 14.12 80.5124 14.256 80.4164 14.368C80.3204 14.464 80.1844 14.512 80.0084 14.512H72.3764V19.96H80.7284C80.9044 19.96 81.0404 20.008 81.1364 20.104C81.2324 20.2 81.2804 20.336 81.2804 20.512V21.448C81.2804 21.608 81.2324 21.744 81.1364 21.856C81.0404 21.952 80.9044 22 80.7284 22H70.6244ZM90.4831 22.24C88.8831 22.24 87.5551 22.016 86.4991 21.568C85.4431 21.104 84.6431 20.504 84.0991 19.768C83.5551 19.032 83.2671 18.248 83.2351 17.416C83.2351 17.288 83.2831 17.176 83.3791 17.08C83.4911 16.968 83.6191 16.912 83.7631 16.912H86.7871C87.0111 16.912 87.1791 16.952 87.2911 17.032C87.4191 17.112 87.5311 17.216 87.6271 17.344C87.7551 17.584 87.9311 17.816 88.1551 18.04C88.3951 18.264 88.6991 18.448 89.0671 18.592C89.4511 18.72 89.9231 18.784 90.4831 18.784C91.4111 18.784 92.1071 18.64 92.5711 18.352C93.0511 18.064 93.2911 17.672 93.2911 17.176C93.2911 16.824 93.1631 16.536 92.9071 16.312C92.6511 16.072 92.2351 15.864 91.6591 15.688C91.0991 15.496 90.3471 15.304 89.4031 15.112C88.1871 14.856 87.1471 14.528 86.2831 14.128C85.4351 13.712 84.7871 13.176 84.3391 12.52C83.8911 11.848 83.6671 11.016 83.6671 10.024C83.6671 9.048 83.9391 8.176 84.4831 7.408C85.0431 6.64 85.8191 6.04 86.8111 5.608C87.8031 5.176 88.9791 4.96 90.3391 4.96C91.4431 4.96 92.4111 5.104 93.2431 5.392C94.0911 5.68 94.8031 6.064 95.3791 6.544C95.9551 7.024 96.3871 7.536 96.6751 8.08C96.9791 8.608 97.1391 9.128 97.1551 9.64C97.1551 9.768 97.1071 9.888 97.0111 10C96.9151 10.096 96.7951 10.144 96.6511 10.144H93.4831C93.3071 10.144 93.1551 10.112 93.0271 10.048C92.8991 9.984 92.7871 9.88 92.6911 9.736C92.5951 9.384 92.3391 9.08 91.9231 8.824C91.5231 8.552 90.9951 8.416 90.3391 8.416C89.6351 8.416 89.0831 8.544 88.6831 8.8C88.2991 9.04 88.1071 9.416 88.1071 9.928C88.1071 10.248 88.2111 10.528 88.4191 10.768C88.6431 11.008 89.0031 11.216 89.4991 11.392C90.0111 11.568 90.7071 11.752 91.5871 11.944C93.0431 12.216 94.2191 12.56 95.1151 12.976C96.0111 13.376 96.6671 13.904 97.0831 14.56C97.4991 15.2 97.7071 16.008 97.7071 16.984C97.7071 18.072 97.3951 19.016 96.7711 19.816C96.1631 20.6 95.3151 21.2 94.2271 21.616C93.1391 22.032 91.8911 22.24 90.4831 22.24ZM107.142 22.24C105.702 22.24 104.438 22.008 103.35 21.544C102.278 21.064 101.446 20.336 100.854 19.36C100.262 18.368 99.9657 17.112 99.9657 15.592V5.8C99.9657 5.624 100.022 5.48 100.134 5.368C100.246 5.256 100.39 5.2 100.566 5.2H103.662C103.838 5.2 103.982 5.256 104.094 5.368C104.206 5.48 104.262 5.624 104.262 5.8V15.568C104.262 16.608 104.51 17.392 105.006 17.92C105.518 18.432 106.23 18.688 107.142 18.688C108.038 18.688 108.734 18.432 109.23 17.92C109.742 17.392 109.998 16.608 109.998 15.568V5.8C109.998 5.624 110.054 5.48 110.166 5.368C110.294 5.256 110.438 5.2 110.598 5.2H113.718C113.878 5.2 114.014 5.256 114.126 5.368C114.254 5.48 114.318 5.624 114.318 5.8V15.592C114.318 17.112 114.022 18.368 113.43 19.36C112.838 20.336 112.006 21.064 110.934 21.544C109.862 22.008 108.598 22.24 107.142 22.24ZM118.1 22C117.924 22 117.78 21.944 117.668 21.832C117.556 21.72 117.5 21.576 117.5 21.4V5.8C117.5 5.624 117.556 5.48 117.668 5.368C117.78 5.256 117.924 5.2 118.1 5.2H124.628C126.692 5.2 128.316 5.68 129.5 6.64C130.7 7.584 131.3 8.928 131.3 10.672C131.3 11.808 131.02 12.768 130.46 13.552C129.916 14.336 129.196 14.928 128.3 15.328L131.612 21.232C131.66 21.328 131.684 21.416 131.684 21.496C131.684 21.624 131.628 21.744 131.516 21.856C131.42 21.952 131.3 22 131.156 22H127.988C127.684 22 127.46 21.928 127.316 21.784C127.172 21.624 127.068 21.48 127.004 21.352L124.268 16.072H121.796V21.4C121.796 21.576 121.74 21.72 121.628 21.832C121.516 21.944 121.372 22 121.196 22H118.1ZM121.796 12.688H124.58C125.332 12.688 125.892 12.504 126.26 12.136C126.644 11.768 126.836 11.264 126.836 10.624C126.836 10 126.652 9.496 126.284 9.112C125.932 8.728 125.364 8.536 124.58 8.536H121.796V12.688ZM134.694 22C134.518 22 134.374 21.944 134.262 21.832C134.15 21.72 134.094 21.576 134.094 21.4V5.8C134.094 5.624 134.15 5.48 134.262 5.368C134.374 5.256 134.518 5.2 134.694 5.2H145.71C145.886 5.2 146.03 5.256 146.142 5.368C146.27 5.48 146.334 5.624 146.334 5.8V8.224C146.334 8.4 146.27 8.544 146.142 8.656C146.03 8.768 145.886 8.824 145.71 8.824H138.318V12.352H145.23C145.406 12.352 145.55 12.416 145.662 12.544C145.79 12.656 145.854 12.8 145.854 12.976V15.376C145.854 15.536 145.79 15.68 145.662 15.808C145.55 15.92 145.406 15.976 145.23 15.976H138.318V21.4C138.318 21.576 138.262 21.72 138.15 21.832C138.038 21.944 137.894 22 137.718 22H134.694Z" fill="#181E34"/>
</svg>
