<svg width="25" height="23" viewBox="0 0 25 23" fill="none" xmlns="http://www.w3.org/2000/svg">
<path d="M13.2816 19.2693C12.8015 18.9761 12.1978 18.9761 11.7178 19.2693L7.00558 22.1475C5.86693 22.843 4.45504 21.8172 4.76463 20.5194L6.04581 15.1484C6.17632 14.6012 5.98977 14.0271 5.56258 13.6611L1.36904 10.0689C0.355742 9.20089 0.89503 7.54113 2.22501 7.43451L7.72909 6.99325C8.28978 6.94829 8.77819 6.59344 8.9942 6.07408L11.1147 0.975741C11.6271 -0.256196 13.3723 -0.256205 13.8847 0.975725L16.0053 6.0741C16.2213 6.59345 16.7097 6.94829 17.2704 6.99324L22.7744 7.43451C24.1044 7.54113 24.6437 9.20089 23.6304 10.0689L19.4368 13.6611C19.0097 14.0271 18.8231 14.6012 18.9536 15.1484L20.2348 20.5194C20.5444 21.8172 19.1325 22.843 17.9939 22.1475L13.2816 19.2693Z" fill="white"/>
</svg>
