<svg width="271" height="161" viewBox="0 0 271 161" fill="none" xmlns="http://www.w3.org/2000/svg">
<path d="M1 170L16.6566 149.399C24.353 139.272 37.5992 135.1 49.7103 138.987L51.6564 139.612C62.8325 143.199 75.0741 139.939 82.9858 131.269L98.513 114.253C103.645 108.629 110.723 105.167 118.312 104.567L154.36 101.722C160.317 101.251 165.998 99.0126 170.675 95.2926L181.969 86.3091C184.31 84.4468 186.908 82.9527 189.687 81.8439C206.703 75.0529 234.396 63.311 235.5 60C236.407 57.2792 240.989 41.6301 244.755 28.6805C246.847 21.4881 251.544 15.3341 257.936 11.4282L275 1" stroke="#3089FF" stroke-opacity="0.3"/>
</svg>
